<?xml version="1.0" standalone="no"?>
<!DOCTYPE svg PUBLIC "-//W3C//DTD SVG 20010904//EN"
 "http://www.w3.org/TR/2001/REC-SVG-20010904/DTD/svg10.dtd">
<svg version="1.0" xmlns="http://www.w3.org/2000/svg"
 width="300.000000pt" height="300.000000pt" viewBox="0 0 300.000000 300.000000"
 preserveAspectRatio="xMidYMid meet">
<metadata>
Created by potrace 1.14, written by Peter Selinger 2001-2017
</metadata>
<g transform="translate(0.000000,300.000000) scale(0.100000,-0.100000)"
fill="#000000" stroke="none">
<path d="M0 1500 l0 -1500 1500 0 1500 0 0 1500 0 1500 -1500 0 -1500 0 0
-1500z m1573 1350 c47 -52 33 -121 -40 -203 -18 -21 -31 -42 -28 -47 4 -6 26
-10 50 -10 48 0 60 -10 50 -40 -6 -19 -14 -20 -118 -18 -94 3 -112 6 -112 19
0 8 32 50 70 93 87 96 101 120 86 152 -15 34 -67 34 -83 -1 -8 -18 -19 -25
-40 -25 -33 0 -36 16 -12 61 33 64 127 74 177 19z m243 25 c48 -20 73 -78 74
-170 0 -54 -5 -82 -22 -115 -42 -83 -137 -91 -191 -16 -19 27 -22 44 -22 131
0 114 13 146 68 170 41 18 50 18 93 0z m-518 -150 c3 -183 1 -197 -36 -193
l-27 3 -5 140 -5 140 -27 3 c-32 4 -35 17 -11 44 13 14 28 18 62 16 l46 -3 3
-150z m50 -562 c1 -101 4 -183 6 -183 2 0 29 15 60 34 147 88 320 68 443 -51
82 -80 123 -185 123 -313 -1 -123 -33 -209 -112 -296 -121 -131 -321 -161
-459 -68 -28 19 -53 34 -54 34 -2 0 -5 -15 -7 -32 l-3 -33 -100 0 -100 0 -3
548 -2 548 102 -3 103 -3 3 -182z m-928 -233 c6 -435 5 -434 69 -477 65 -44
178 -24 225 40 20 27 21 44 26 430 l5 402 100 0 100 0 3 -375 c3 -415 -3 -477
-49 -558 -113 -198 -424 -228 -591 -56 -51 52 -71 97 -88 204 -11 69 -14 747
-4 775 5 13 22 15 103 13 l96 -3 5 -395z m2231 125 c105 -37 160 -103 179
-215 6 -39 10 -168 8 -325 l-3 -260 -100 0 -100 0 -5 260 c-4 158 -10 270 -17
286 -19 44 -70 79 -114 79 -46 0 -72 -11 -112 -49 -55 -51 -60 -75 -65 -338
l-4 -243 -99 0 -99 0 2 398 3 397 95 0 c87 0 95 -2 98 -20 7 -45 10 -46 52
-19 90 60 197 78 281 49z m-1533 -1011 c5 -51 8 -54 41 -43 34 12 83 -8 101
-40 20 -39 12 -95 -18 -124 -25 -24 -34 -26 -97 -24 l-70 2 -3 119 c-2 80 1
123 9 132 18 21 34 12 37 -22z m226 30 c21 -8 20 -40 -1 -48 -9 -4 -23 0 -31
8 -13 12 -13 18 -2 30 14 18 13 18 34 10z m316 -10 c11 -12 11 -18 -2 -30 -18
-18 -48 -8 -48 16 0 16 11 27 31 29 4 1 12 -6 19 -15z m91 -27 c3 -21 5 -79 5
-129 -1 -82 -3 -93 -20 -96 -10 -2 -22 2 -26 9 -10 15 -6 231 4 248 13 21 31
6 37 -32z m87 31 c7 -7 12 -17 12 -24 0 -19 -32 -26 -48 -10 -13 12 -13 18 -2
30 15 19 22 20 38 4z m-1158 -92 c0 -73 4 -98 16 -110 37 -38 53 -9 56 105 3
89 4 94 26 97 22 3 22 2 22 -107 0 -97 -2 -113 -20 -131 -42 -42 -111 -32
-137 20 -13 26 -18 201 -6 213 3 4 15 7 25 7 16 0 18 -10 18 -94z m324 13 c25
-20 27 -25 24 -98 -3 -68 -5 -76 -23 -76 -18 0 -20 8 -23 62 -3 68 -21 95 -50
76 -12 -7 -18 -29 -22 -74 -4 -57 -7 -64 -27 -67 -23 -3 -23 -1 -23 94 l0 97
35 -6 c19 -3 37 -1 40 4 10 15 41 10 69 -12z m529 10 c33 -18 37 -28 37 -112
0 -76 -1 -78 -22 -75 -20 3 -23 10 -26 53 -4 75 -10 95 -31 95 -29 0 -40 -21
-43 -85 -3 -52 -6 -60 -23 -60 -18 0 -20 8 -23 94 l-3 94 34 -6 c19 -3 40 -1
48 4 19 12 26 11 52 -2z m127 -96 c0 -92 -1 -94 -22 -91 -22 3 -23 9 -26 86
-3 86 7 116 34 105 11 -4 14 -27 14 -100z m587 92 c19 -13 24 -13 50 0 37 20
45 19 77 -6 25 -20 27 -25 24 -98 -3 -68 -5 -76 -23 -76 -17 0 -21 8 -25 64
-4 45 -10 67 -22 74 -29 19 -47 -8 -50 -76 -3 -56 -5 -62 -25 -65 -22 -3 -23
0 -23 55 0 65 -17 100 -44 90 -22 -9 -36 -49 -36 -103 0 -41 -2 -45 -22 -42
-22 3 -23 7 -23 93 l0 90 43 1 c23 0 45 4 49 7 10 11 27 8 50 -8z m-892 -90
c0 -86 -1 -90 -22 -93 -22 -3 -23 -1 -23 93 0 94 1 96 23 93 21 -3 22 -7 22
-93z m490 0 c0 -86 -1 -90 -22 -93 -22 -3 -23 -1 -23 93 0 94 1 96 23 93 21
-3 22 -7 22 -93z m97 29 c2 -52 7 -69 21 -78 29 -17 47 17 47 87 0 55 1 58 23
55 20 -3 22 -8 22 -75 0 -88 -19 -115 -81 -115 -60 0 -84 35 -84 123 0 67 1
69 25 69 23 0 24 -3 27 -66z m-842 -319 c44 -23 56 -90 23 -127 -14 -16 -13
-20 11 -48 38 -46 35 -93 -8 -136 -30 -30 -40 -34 -85 -34 -41 0 -56 5 -80 28
-17 15 -33 39 -37 55 -6 25 -4 27 24 27 21 0 35 -8 46 -25 22 -34 69 -34 91
-1 22 33 6 63 -38 74 -24 6 -33 14 -35 34 -3 21 3 28 28 36 35 13 48 36 30 57
-16 19 -44 19 -60 0 -18 -22 -70 -20 -70 3 0 19 34 55 60 65 29 10 71 7 100
-8z m280 -10 c11 -10 25 -34 31 -54 13 -44 -3 -88 -55 -150 -20 -24 -36 -47
-36 -51 0 -5 21 -10 48 -12 43 -3 47 -5 50 -30 l3 -28 -120 0 c-90 0 -121 3
-121 13 0 6 34 48 76 92 97 102 118 152 74 175 -28 15 -59 3 -70 -26 -12 -30
-70 -36 -70 -6 0 26 37 82 63 92 32 14 105 5 127 -15z m255 13 c43 -19 67 -79
67 -167 1 -122 -37 -182 -117 -184 -41 -1 -83 27 -105 69 -21 42 -19 189 3
231 31 59 91 79 152 51z m403 -2 c46 -24 57 -58 57 -172 0 -119 -14 -150 -80
-172 -33 -11 -42 -10 -73 5 -63 32 -77 62 -77 166 0 75 4 99 21 127 33 57 95
76 152 46z m-229 -290 c16 -20 -3 -56 -29 -56 -26 0 -45 36 -29 56 6 8 19 14
29 14 10 0 23 -6 29 -14z"/>
<path d="M1730 2800 c-31 -58 -18 -189 20 -210 27 -14 58 3 67 38 12 41 7 140
-7 168 -17 31 -64 33 -80 4z"/>
<path d="M1464 1861 c-151 -69 -166 -307 -26 -406 39 -27 52 -30 116 -30 62 0
78 4 114 28 62 41 93 94 99 169 7 80 -9 139 -50 185 -61 70 -168 93 -253 54z"/>
<path d="M1136 941 c-24 -26 -17 -62 16 -80 24 -14 28 -14 47 3 25 23 27 58 5
80 -21 21 -47 20 -68 -3z"/>
<path d="M1550 550 c-17 -17 -20 -33 -20 -98 0 -88 16 -122 56 -122 36 0 57
55 52 137 -6 91 -44 127 -88 83z"/>
<path d="M1950 550 c-17 -17 -20 -33 -20 -98 0 -111 37 -155 86 -101 15 17 19
36 19 99 0 63 -4 82 -19 99 -24 26 -40 27 -66 1z"/>
</g>
</svg>
